<?xml version="1.0" encoding="utf-8"?>
<!-- Generator: Adobe Illustrator 21.0.2, SVG Export Plug-In . SVG Version: 6.00 Build 0)  -->
<svg version="1.1" id="Capa_1" xmlns="http://www.w3.org/2000/svg" xmlns:xlink="http://www.w3.org/1999/xlink" x="0px" y="0px"
	 viewBox="0 0 269.1 175.4" style="enable-background:new 0 0 269.1 175.4;" xml:space="preserve">
<style type="text/css">
	.st0{fill:#F2F2F2;}
	.st1{fill:url(#SVGID_1_);}
	.st2{fill:#A0140D;}
	.st3{fill:#FFFFFF;stroke:#000000;stroke-width:0.1505;stroke-miterlimit:10;}
	.st4{fill:#E6E6E6;}
	.st5{fill:url(#SVGID_2_);}
	.st6{fill:url(#SVGID_3_);}
	.st7{fill:none;}
	.st8{fill:#FFFFFF;}
	.st9{fill:url(#SVGID_4_);}
	.st10{fill:url(#SVGID_5_);}
	.st11{fill:url(#SVGID_6_);}
	.st12{fill:url(#SVGID_7_);}
	.st13{fill:url(#SVGID_8_);}
	.st14{fill:url(#SVGID_9_);}
	.st15{fill:url(#SVGID_10_);}
	.st16{fill:url(#SVGID_11_);}
	.st17{fill:url(#SVGID_12_);}
	.st18{fill:url(#SVGID_13_);}
	.st19{fill:url(#SVGID_14_);}
	.st20{fill:url(#SVGID_15_);}
	.st21{fill:url(#SVGID_16_);}
	.st22{fill:url(#SVGID_17_);}
	.st23{fill:url(#SVGID_18_);}
	.st24{fill:url(#SVGID_19_);}
	.st25{fill:url(#SVGID_20_);}
	.st26{fill:url(#SVGID_21_);}
	.st27{fill:url(#SVGID_22_);}
	.st28{fill:url(#SVGID_23_);}
	.st29{fill:url(#SVGID_24_);}
	.st30{fill:url(#SVGID_25_);}
	.st31{fill:url(#SVGID_26_);}
	.st32{fill:url(#SVGID_27_);}
	.st33{fill:url(#SVGID_28_);}
	.st34{fill:url(#SVGID_29_);}
	.st35{fill:url(#SVGID_30_);}
	.st36{fill:url(#SVGID_31_);}
	.st37{fill:url(#SVGID_32_);}
	.st38{fill:url(#SVGID_33_);}
	.st39{fill:url(#SVGID_34_);}
	.st40{fill:url(#SVGID_35_);}
	.st41{fill:url(#SVGID_36_);}
	.st42{fill:url(#SVGID_37_);}
	.st43{fill:url(#SVGID_38_);}
	.st44{fill:url(#SVGID_39_);}
	.st45{fill:url(#SVGID_40_);}
	.st46{fill:url(#SVGID_41_);}
	.st47{fill:url(#SVGID_42_);}
</style>
<g>
	<path class="st0" d="M262.2,89.5c0.1-1.4,0.1-2.8,0.1-4.6l0-5.2V52H88.9l0,0l-3.7,0C44.6,52.2,9.5,87.7,7,131.1
		c-0.1,1.4-0.1,2.8-0.1,4.6l0,5.2v27.6h174.8l2.4,0C224.6,168.4,259.7,132.9,262.2,89.5z"/>
	<linearGradient id="SVGID_1_" gradientUnits="userSpaceOnUse" x1="134.2462" y1="162.6886" x2="134.2462" y2="58.2364">
		<stop  offset="0" style="stop-color:#A0140D"/>
		<stop  offset="0.1635" style="stop-color:#A51812"/>
		<stop  offset="0.2688" style="stop-color:#AC1E19"/>
		<stop  offset="0.4838" style="stop-color:#CC221E"/>
		<stop  offset="0.5968" style="stop-color:#DE2521"/>
		<stop  offset="0.8065" style="stop-color:#E42622"/>
		<stop  offset="1" style="stop-color:#E42622"/>
	</linearGradient>
	<path class="st1" d="M142.6,58.2c-8,5.5-17.6,8.9-27.2,9h-0.4c-9.2,0-17.1-3.3-22.3-9h-3.9l-4.1,0c-37.5,0.1-69.9,33-72.2,73.4
		c-0.1,1.3-0.1,2.6-0.1,4.3l0,5.2v21.5h168.7l2.4,0c37.5-0.1,69.9-33,72.2-73.4c0.1-1.3,0.1-2.6,0.1-4.3l0-5.2V58.2H142.6z"/>
	<path class="st0" d="M115.1,67.3h0.4c9.5-0.1,19.1-3.5,27.2-9c0,0,0,0,0,0c2.7-1.8,5.2-3.9,7.4-6.2c2.1-2.1,4-4.4,5.7-6.8
		c2.2-3.2,3.9-6.6,5.1-10.2c2.9-9,1.9-17.6-2.9-24.2C152.9,3.9,144.2,0,134.1,0l-0.4,0c-19.6,0.2-39.5,14.4-45.3,32.2
		c-1.5,4.5-1.9,8.9-1.4,13c0.3,2.4,0.9,4.7,1.9,6.8l0,0c0.7,1.5,1.5,3,2.5,4.4c0.4,0.6,0.9,1.2,1.4,1.8
		C97.9,64,105.9,67.3,115.1,67.3z"/>
	<path class="st2" d="M86,76.4c-2.2,0-4.3,1-5.6,3l-15.9,23.4L51.2,81.8c-1.3-2-3.4-3-5.6-3c-1.3,0-2.5,0.4-3.7,1.1
		c-3.1,2-4,6.2-2,9.3l16.4,25.7l-17.2,25.4c-1,1.5-1.3,3.3-1,5c0.4,1.8,1.4,3.3,2.9,4.3c0.1,0.1,0.2,0.1,0.4,0.2
		c1.1,0.6,2.2,0.9,3.4,0.9c2.2,0,4.3-1.1,5.6-3l13.9-20.5l15.3,24c1,1.5,2.5,2.5,4.2,2.9c0.5,0.1,0.9,0.1,1.4,0.1
		c1.3,0,2.5-0.4,3.7-1.1c0.1-0.1,0.2-0.2,0.3-0.2c2.8-2.1,3.6-6.1,1.6-9L72.4,115l19.2-28.2c2-3.1,1.2-7.2-1.9-9.3
		C88.6,76.8,87.3,76.4,86,76.4L86,76.4z"/>
	<path class="st2" d="M161.4,79.5c-22.9,0-34.4,16.2-37.5,31.7c-3.3,16.3,2.3,31.5,12.8,35.2c0.7,0.2,1.4,0.4,2.1,0.4
		c1.2,0,2.3-0.3,3.3-1c9.5-6,22.5-14.9,22.6-15c2.8-1.9,3.5-5.7,1.6-8.5c-1.2-1.7-3.1-2.7-5.1-2.7c-1.2,0-2.4,0.3-3.5,1.1
		c-0.1,0.1-10.3,7-19,12.7c-2.8-3.4-4.5-11.4-2.9-19.8c1.2-6.2,5.8-19.8,21.7-21.7c0.5,4.3,0.9,7.2,0.9,7.3c0.3,3.1,3,5.5,6.1,5.5
		c0.2,0,0.4,0,0.6,0c3.4-0.3,5.9-3.3,5.5-6.7c0-0.4-1-8.5-1.5-13c-0.3-3-2.8-5.3-5.8-5.4C162.9,79.5,162.2,79.5,161.4,79.5
		L161.4,79.5z"/>
	<path class="st2" d="M109.9,77c-3.6,0-6.5,2.8-6.7,6.3l-3.5,60.5c-0.1,1.8,0.5,3.5,1.7,4.8c1.2,1.3,2.8,2.1,4.6,2.2
		c0.1,0,0.2,0,0.4,0c0,0,0,0,0.1,0c3.5,0,6.5-2.8,6.7-6.3l3.5-60.5c0.2-3.7-2.6-6.8-6.3-7.1C110.2,77,110,77,109.9,77L109.9,77z"/>
	<path class="st2" d="M218,76.4c-17.3,0-32.2,8.4-39,26.8c-6,16.4-0.5,33.7,13.7,44.7c1.1,0.9,2.4,1.3,3.8,1.4c0.4,0,0.9,0,1.3,0
		c14.4,0,26.7-7.1,33.9-19.7c7.1-12.3,8-28.8,2.1-38.2c-1.2-2-3.4-3.1-5.5-3.1c-1.2,0-2.4,0.3-3.5,1c-3.1,1.9-4,5.9-2.1,9
		c2.9,4.6,2.8,15.8-2.3,24.8c-3.4,5.9-9.7,12.7-21.3,13.1c-9.9-8.9-10.3-20.4-7.7-28.8c3.7-12,15-18.1,26.7-18.1
		c3.6,0,6.5-2.9,6.5-6.5C224.6,79.3,221.6,76.4,218,76.4L218,76.4z"/>
	<path class="st3" d="M51.4,89.3"/>
	<path class="st4" d="M76.7,103.1c-0.1,0.1-0.2,0.2-0.2,0.3C76.5,103.3,76.6,103.2,76.7,103.1z"/>
	<linearGradient id="SVGID_2_" gradientUnits="userSpaceOnUse" x1="95.6086" y1="33.6371" x2="153.5085" y2="33.6371">
		<stop  offset="0" style="stop-color:#283376"/>
		<stop  offset="0.4986" style="stop-color:#337ABD"/>
		<stop  offset="1" style="stop-color:#283376"/>
	</linearGradient>
	<path class="st5" d="M131.9,7.9c7.7,0,14.3,3,18.1,8.3c3.7,5.1,4.5,11.7,2.3,18.5c-4.5,13.7-19.7,24.5-34.7,24.7h-0.3
		c-7.7,0-14.3-3-18.1-8.3c-3.7-5.1-4.5-11.7-2.3-18.5c4.5-13.7,19.7-24.5,34.7-24.7H131.9L131.9,7.9L131.9,7.9"/>
	<path class="st0" d="M131.9,12.1c12.9,0,20.3,9.5,16.4,21.3c-3.9,11.9-17.7,21.7-30.8,21.8c-0.1,0-0.2,0-0.3,0
		c-12.9,0-20.3-9.5-16.4-21.3c3.9-11.9,17.7-21.7,30.8-21.8C131.7,12.1,131.8,12.1,131.9,12.1"/>
	<linearGradient id="SVGID_3_" gradientUnits="userSpaceOnUse" x1="109.2399" y1="48.9528" x2="139.8728" y2="18.3199">
		<stop  offset="0" style="stop-color:#A0140D"/>
		<stop  offset="0.1635" style="stop-color:#A51812"/>
		<stop  offset="0.2688" style="stop-color:#AC1E19"/>
		<stop  offset="0.4838" style="stop-color:#CC221E"/>
		<stop  offset="0.5968" style="stop-color:#DE2521"/>
		<stop  offset="0.8065" style="stop-color:#E42622"/>
		<stop  offset="1" style="stop-color:#E42622"/>
	</linearGradient>
	<path class="st6" d="M130.6,15.9c10.6,0,16.6,7.8,13.5,17.5c-3.2,9.8-14.5,17.8-25.3,17.9c-0.1,0-0.1,0-0.2,0
		c-10.6,0-16.6-7.8-13.5-17.5c3.2-9.8,14.5-17.8,25.3-17.9C130.4,15.9,130.5,15.9,130.6,15.9"/>
	<path class="st7" d="M120.6,66.7l-0.3,0c-10.1,0-18.9-4.1-24.1-11.3c-0.8-1.1-1.5-2.2-2.1-3.4h-4.9l-4.1,0
		C44.6,52.2,9.5,87.7,7,131.1c-0.1,1.4-0.1,2.8-0.1,4.6l0,5.2v27.6h174.8l2.4,0c40.6-0.1,75.7-35.6,78.2-79.1
		c0.1-1.4,0.1-2.8,0.1-4.6l0-5.2V52H153.2C144.9,60.9,132.9,66.6,120.6,66.7z"/>
	<path class="st7" d="M234.3,113.2c2.8-1.3,5.3-2.7,7.7-4.1C239.5,110.5,236.9,111.8,234.3,113.2z"/>
	<path class="st8" d="M90.6,73.4c-2.2,0-4.3,1-5.6,3L69.1,99.7L55.7,78.8c-1.3-2-3.4-3-5.6-3c-1.3,0-2.5,0.4-3.7,1.1
		c-3.1,2.1-4,6.2-2,9.3l16.4,25.7l-17.2,25.4c-1,1.5-1.3,3.3-1,5c0.4,1.8,1.4,3.3,2.9,4.3c0.1,0.1,0.2,0.1,0.4,0.2
		c1.1,0.6,2.2,0.9,3.4,0.9c2.2,0,4.3-1,5.6-3l13.9-20.5l15.3,24c1,1.5,2.5,2.5,4.2,2.9c0.5,0.1,0.9,0.1,1.4,0.1
		c1.3,0,2.5-0.4,3.6-1.1c0.1-0.1,0.2-0.2,0.3-0.2c2.8-2.1,3.5-6.1,1.6-9L77,112l19.2-28.2c2-3.1,1.2-7.2-1.9-9.3
		C93.1,73.7,91.8,73.4,90.6,73.4L90.6,73.4z"/>
	<path class="st8" d="M168.2,73.7c-24.8,0-37.2,17.5-40.6,34.3c-3.5,17.7,2.4,34.1,13.9,38.2c0.7,0.3,1.5,0.4,2.3,0.4
		c1.3,0,2.5-0.4,3.6-1.1c10.3-6.5,24.4-16.2,24.5-16.3c3-2.1,3.8-6.2,1.7-9.2c-1.3-1.9-3.4-2.9-5.5-2.9c-1.3,0-2.6,0.4-3.8,1.2
		c-0.1,0.1-11.2,7.6-20.6,13.7c-3.1-3.7-4.9-12.3-3.1-21.5c1.3-6.7,6.3-21.5,23.6-23.5c0.5,4.7,1,7.8,1,7.9c0.3,3.4,3.2,6,6.6,6
		c0.2,0,0.4,0,0.7,0c3.7-0.4,6.3-3.6,6-7.2c0-0.4-1.1-9.2-1.7-14.1c-0.4-3.2-3.1-5.7-6.3-5.9C169.8,73.7,169,73.7,168.2,73.7
		L168.2,73.7z"/>
	<path class="st8" d="M115.1,74c-3.6,0-6.5,2.8-6.7,6.3l-3.5,60.5c-0.1,1.8,0.5,3.5,1.7,4.8c1.2,1.3,2.8,2.1,4.6,2.2
		c0.1,0,0.2,0,0.4,0c0,0,0,0,0.1,0c3.5,0,6.5-2.8,6.7-6.3l3.5-60.5c0.2-3.7-2.6-6.8-6.3-7.1C115.4,74,115.3,74,115.1,74L115.1,74z"
		/>
	<path class="st8" d="M223,73.5c-17.3,0-32.2,8.4-39,26.8c-5.4,14.7-1.5,30.2,9.6,41.2c1.3,1.2,1.7,1.7,3.2,2.9
		c0.5,0.4,1.8,1.5,4.3,1.9c2.4,0.4,6,0.1,8.8-0.4c11.3-1.9,20.8-8.7,26.9-19.1c7.1-12.3,8-28.8,2.1-38.2c-1.2-2-3.4-3.1-5.5-3.1
		c-1.2,0-2.4,0.3-3.5,1c-3.1,1.9-4,5.9-2.1,9c2.9,4.6,2.8,15.8-2.3,24.8c-3.4,5.9-9.7,12.7-21.3,13.1c-9.9-8.9-10.3-20.4-7.7-28.8
		c3.7-12,15-18.1,26.7-18.1c3.6,0,6.5-2.9,6.5-6.5C229.5,76.4,226.6,73.5,223,73.5L223,73.5z"/>
	<linearGradient id="SVGID_4_" gradientUnits="userSpaceOnUse" x1="142.5417" y1="92.5893" x2="175.4502" y2="92.5893">
		<stop  offset="0" style="stop-color:#CCCCCC"/>
		<stop  offset="0.3441" style="stop-color:#CCCCCC"/>
		<stop  offset="0.8011" style="stop-color:#F2F2F2"/>
		<stop  offset="1" style="stop-color:#F2F2F2"/>
	</linearGradient>
	<path class="st9" d="M174.9,98.3c-0.8-0.1-1.5-0.3-2.1-0.7c-0.1,0-0.1-0.1-0.2-0.1c-0.1,0-0.3,0-0.5,0.1l-0.1,0
		c-1.7,0-2.6-0.3-3.2-2.9l-1.2-8.9h0c-0.1-1.1-1-1.9-2.1-1.9c-0.1,0-2.9,0.3-5.8,1c-2.2,0.5-5.6,2.1-6.6,2.7
		c-7.6,4.3-10,10.8-10.4,13.8c1.2-3.1,3.6-6.1,5.7-8.1c3.8-3.6,10.1-6.8,15.3-7.2l1.2-0.1c0.3,0,0.7,0.4,0.8,1.1l1,7.6
		c0.7,3.2,2.6,5.1,5.4,5.1l0.2,0c1.3,0,2.4-0.6,3.3-1.4c0,0-0.1,0-0.1,0C175.2,98.4,175,98.3,174.9,98.3z"/>
	<linearGradient id="SVGID_5_" gradientUnits="userSpaceOnUse" x1="128.053" y1="115.6998" x2="173.5671" y2="115.6998">
		<stop  offset="0.41" style="stop-color:#CCCCCC"/>
		<stop  offset="0.4563" style="stop-color:#D3D3D3;stop-opacity:0.9215"/>
		<stop  offset="0.6593" style="stop-color:#EBEBEB;stop-opacity:0.5775"/>
		<stop  offset="0.846" style="stop-color:#FAFAFA;stop-opacity:0.2611"/>
		<stop  offset="1" style="stop-color:#FFFFFF;stop-opacity:0"/>
	</linearGradient>
	<path class="st10" d="M169.1,125.4c0.2,1.5-1.2,2.5-1.7,2.8l-21,13.7c-1.5,0.9-2.3,1.3-3.2,1.2c-0.9,0-2.6-1-3.2-1.4
		c-6.7-4.8-9.5-14.3-9.6-21.7c-0.1-5.1-1.2-19.7,10-34c-0.9,0.8-1.7,1.6-2.5,2.5c-3.7,4.2-6.2,9.5-8.2,15.3
		c-2.3,6.7-1.8,18-1.4,20.7c1.3,10.5,6.9,16.5,10.4,18.9c1.7,1.1,3.1,1.7,4.5,1.8c1,0.1,2.1,0.3,5.9-2l21.7-14.7
		c1.5-1,2.4-2.5,2.6-3.8c0-0.2,0-0.6,0-0.6S171.5,125.9,169.1,125.4z"/>
	
		<linearGradient id="SVGID_6_" gradientUnits="userSpaceOnUse" x1="202.0317" y1="23.0202" x2="213.8236" y2="23.0202" gradientTransform="matrix(0.9969 -7.920000e-02 7.920000e-02 0.9969 18.3225 100.3733)">
		<stop  offset="0" style="stop-color:#F2F2F2"/>
		<stop  offset="0.1989" style="stop-color:#F2F2F2"/>
		<stop  offset="0.6559" style="stop-color:#CCCCCC"/>
		<stop  offset="1" style="stop-color:#CCCCCC"/>
	</linearGradient>
	<path class="st11" d="M228.3,90.2c-1,2.5,0.4,4.6,0.4,4.6s2.3,3.4,2.2,8.5c-0.3,11.8-3.6,16.9-7.9,22.3c3.1-2.5,6.3-6.7,8.1-11.1
		c2.7-5.9,2.3-12.8,0.9-17.3c-0.3-1-0.8-2.2-1.3-3.6l-0.1-0.3c-0.3-0.6-0.4-1.3-0.3-2c-1-1.5-0.8-2.9-0.8-3.2
		C229,88.8,228.4,89.8,228.3,90.2z"/>
	<linearGradient id="SVGID_7_" gradientUnits="userSpaceOnUse" x1="182.8356" y1="115.1217" x2="241.3425" y2="115.1217">
		<stop  offset="0" style="stop-color:#CCCCCC"/>
		<stop  offset="0.3441" style="stop-color:#CCCCCC"/>
		<stop  offset="0.6452" style="stop-color:#F2F2F2"/>
		<stop  offset="1" style="stop-color:#F2F2F2"/>
	</linearGradient>
	<path class="st12" d="M216.3,140.3c-3.7,1.6-9.9,2.5-13.3,2.5c-2.4,0-4.3-0.7-5.9-2.2c-5.9-5.8-9.7-13.4-11.5-20.4
		c-2.1-8-0.3-20.9,9.4-35c-5.6,5.4-9.4,14-10.3,17c-2.2,7.9-2,13.5-1.2,18.3c1.2,7.8,8.6,19.2,13.8,22.5c2.2,1.5,2.9,1.9,5.8,1.9
		c3.8,0,10.5-0.9,14.4-2.5c6.6-2.9,11.3-6.5,15.5-12c6.8-9.9,7.4-16.1,8.5-22.8C235.5,132.2,221.8,137.9,216.3,140.3z"/>
	<linearGradient id="SVGID_8_" gradientUnits="userSpaceOnUse" x1="67.4939" y1="135.3681" x2="94.8069" y2="135.3681">
		<stop  offset="0" style="stop-color:#CCCCCC"/>
		<stop  offset="0.3441" style="stop-color:#CCCCCC"/>
		<stop  offset="0.8011" style="stop-color:#F2F2F2"/>
		<stop  offset="1" style="stop-color:#F2F2F2"/>
	</linearGradient>
	<path class="st13" d="M91.6,145.4c-2.1,0.7-4.3,0.1-5.9-1.4c-0.5-0.5-1.9-2.3-2.1-2.5c-3.1-4.4-9.7-17-11.3-19.3
		c-0.5-0.8-1.5-1.4-2.3-1.4c-0.9,0-1.7,0.4-2.1,1.1c-0.7,1.2-0.3,2.5-0.3,2.5c0.5-0.7,0.8-1.5,1.7-1.5c0.3,0,0.6,0.2,0.8,0.4
		c0.4,0.3,15.2,23.7,15.2,23.7s0.3,0.4,0.7,0.9c0.9,1.2,2.3,1.9,3.8,1.9c2.8,0,5-2.4,5-5.3c0-0.6-0.1-1.1-0.3-1.6
		C93.9,144.1,92.8,145,91.6,145.4z"/>
	<linearGradient id="SVGID_9_" gradientUnits="userSpaceOnUse" x1="67.4191" y1="89.8467" x2="88.207" y2="89.8467">
		<stop  offset="0" style="stop-color:#F2F2F2"/>
		<stop  offset="0.1989" style="stop-color:#F2F2F2"/>
		<stop  offset="0.6559" style="stop-color:#CCCCCC"/>
		<stop  offset="1" style="stop-color:#CCCCCC"/>
	</linearGradient>
	<path class="st14" d="M86.8,76.8c-0.5,0.5-0.9,1.1-0.9,1.1l-10.4,15c0,0-4.8,7.4-5.2,7.7c-1.1,1.2-2.9-1.7-2.9-1.7s0.6,4,3,4.1
		c0.9,0,1.4-0.1,2.3-1.4c1.4-2.3,8.9-14.1,11.8-18.3c0.7-1,2.2-2.4,3.6-2.3c-0.8-0.9-1.3-1.9-1.4-3.1C86.8,77.4,86.8,77.1,86.8,76.8
		z"/>
	<linearGradient id="SVGID_10_" gradientUnits="userSpaceOnUse" x1="44.5817" y1="112.4981" x2="65.3578" y2="112.4981">
		<stop  offset="0" style="stop-color:#CCCCCC"/>
		<stop  offset="0.3441" style="stop-color:#CCCCCC"/>
		<stop  offset="0.8011" style="stop-color:#F2F2F2"/>
		<stop  offset="1" style="stop-color:#F2F2F2"/>
	</linearGradient>
	<path class="st15" d="M65.2,110.2c-0.1-0.2-13.3-21-13.6-21.5c-0.5-0.9-0.8-2.3-0.8-3.5c0-0.5,0.1-0.9,0.1-1.3
		c-2.3-0.6-4.1-2.6-4.5-5.1c-0.6,1-0.9,2.2-0.9,3.4c0,1.1,0.2,2.2,0.7,3.1c1.1,2.1,14.1,22.1,16.3,25.4c0,0.1,0.2,0.3,0.2,0.7
		c0,0.3-0.2,0.7-0.5,1.2c-3.3,4.7-15.6,22.9-16.7,24.8c-2.1,3.5-0.6,6.3,1.5,7.8c0.5,0.4,1.6,0.8,2.9,0.9c1.6,0,3-0.8,3.9-2
		c-4.8,0.1-5.3-3.6-5.3-5c0-2.1,4.2-7.9,5.3-9.7c3.8-5.7,11.1-17.3,11.1-17.3c0.2-0.4,0.3-0.9,0.3-1.1
		C65.4,110.8,65.3,110.5,65.2,110.2z"/>
	<linearGradient id="SVGID_11_" gradientUnits="userSpaceOnUse" x1="74.6399" y1="98.5748" x2="96.0076" y2="98.5748">
		<stop  offset="0" style="stop-color:#F2F2F2"/>
		<stop  offset="0.1989" style="stop-color:#F2F2F2"/>
		<stop  offset="0.6559" style="stop-color:#CCCCCC"/>
		<stop  offset="1" style="stop-color:#CCCCCC"/>
	</linearGradient>
	<path class="st16" d="M93.5,83c-0.8,0-1.5-0.1-2.2-0.2c0.9,1,1.2,2.4,0.5,3.4c-2.9,4.3-15,22-16.6,24.1c-0.6,0.7-0.7,1.8-0.3,2.5
		c0.6,1.2,1.9,1.7,2.7,2.1c-0.5-0.9-1.7-2.2-1.4-3c0.1-0.4,5-7.2,5-7.2l14.4-21.4c0,0,0.2-0.4,0.5-0.9C95.2,82.7,94.4,82.9,93.5,83z
		"/>
	<linearGradient id="SVGID_12_" gradientUnits="userSpaceOnUse" x1="140.4217" y1="126.7509" x2="165.8283" y2="126.7509">
		<stop  offset="0" style="stop-color:#CCCCCC"/>
		<stop  offset="0.3441" style="stop-color:#CCCCCC"/>
		<stop  offset="0.8011" style="stop-color:#F2F2F2"/>
		<stop  offset="1" style="stop-color:#F2F2F2"/>
	</linearGradient>
	<path class="st17" d="M165.7,121.6c-0.2-0.6-0.4-1.2-0.4-1.9c0-0.2,0-0.3,0-0.5c0,0-17.6,11.7-19,12.7c-0.1,0.1-0.2,0.2-0.4,0.2
		c-0.1,0.1-0.2,0.1-0.3,0.2c-0.8,0.5-2.3,1.1-3.3,0c-0.7-0.9-1.3-2.1-1.8-3.5c-0.2,0.8-0.3,1.2-0.2,1.9c0.3,1.8,1.5,3.3,2.8,3.5
		c0.1,0,0.3,0,0.5,0c0,0,0,0,0,0c0,0,0,0,0,0c0.1,0,0.3,0,0.5,0c0.1,0,0.2,0,0.3-0.1c0,0,0,0,0.1,0c0.1,0,0.3-0.1,0.4-0.1
		c0.7-0.2,1.6-0.7,2.7-1.4c1.5-1,10.1-7,10.1-7s7-4.4,8-3.9C165.8,121.7,165.8,121.7,165.7,121.6z"/>
	<linearGradient id="SVGID_13_" gradientUnits="userSpaceOnUse" x1="193.4498" y1="98.7661" x2="227.9775" y2="98.7661">
		<stop  offset="0" style="stop-color:#F2F2F2"/>
		<stop  offset="0.1989" style="stop-color:#F2F2F2"/>
		<stop  offset="0.6559" style="stop-color:#CCCCCC"/>
		<stop  offset="1" style="stop-color:#CCCCCC"/>
	</linearGradient>
	<path class="st18" d="M224.3,82.6c-0.5-0.1-1-0.2-1.4-0.4c-0.4,0.4-0.9,0.7-1.5,0.7c-6,0.7-9.7,1.7-12.5,3.1
		c-17.8,8.9-15.6,27.9-15,30.1c-0.2-1.9-1.7-20.4,16-28.2c1.8-0.8,4.1-1.6,6.9-2.1c1-0.2,2-0.3,3.2-0.4c1.8-0.2,7.4,0.7,8-4.1
		C227,82.3,225.7,82.8,224.3,82.6z"/>
	
		<linearGradient id="SVGID_14_" gradientUnits="userSpaceOnUse" x1="48.5484" y1="62.3419" x2="55.3384" y2="62.3419" gradientTransform="matrix(0.9998 -1.890000e-02 1.890000e-02 0.9998 -2.2566 18.6494)">
		<stop  offset="0" style="stop-color:#CCCCCC"/>
		<stop  offset="0.3441" style="stop-color:#CCCCCC"/>
		<stop  offset="0.8011" style="stop-color:#F2F2F2"/>
		<stop  offset="1" style="stop-color:#F2F2F2"/>
	</linearGradient>
	<path class="st19" d="M47.4,78.1c0,0,1.7-0.2,3.3,0.5c2,0.9,3.5,3.3,3.5,3.3s-1.7-1.3-2.9-2.2C49.9,78.7,47.4,78.1,47.4,78.1z"/>
	
		<linearGradient id="SVGID_15_" gradientUnits="userSpaceOnUse" x1="52.4479" y1="20.474" x2="59.428" y2="20.474" gradientTransform="matrix(0.998 -6.250000e-02 6.250000e-02 0.998 -5.3074 61.5161)">
		<stop  offset="0" style="stop-color:#CCCCCC"/>
		<stop  offset="0.3441" style="stop-color:#CCCCCC"/>
		<stop  offset="0.8011" style="stop-color:#F2F2F2"/>
		<stop  offset="1" style="stop-color:#F2F2F2"/>
	</linearGradient>
	<path class="st20" d="M48.2,77.5c0,0,2.4-0.9,4.2-0.3c2,0.8,3,2.4,3,2.4s-1.3-0.9-2.8-1.6C50.7,77.3,48.2,77.5,48.2,77.5z"/>
	
		<linearGradient id="SVGID_16_" gradientUnits="userSpaceOnUse" x1="1276.3464" y1="-774.236" x2="1278.8293" y2="-774.236" gradientTransform="matrix(-0.3482 0.9374 0.9374 0.3482 1218.8689 -847.623)">
		<stop  offset="0" style="stop-color:#CCCCCC"/>
		<stop  offset="0.3441" style="stop-color:#CCCCCC"/>
		<stop  offset="0.8011" style="stop-color:#F2F2F2"/>
		<stop  offset="1" style="stop-color:#F2F2F2"/>
	</linearGradient>
	<path class="st21" d="M46.8,78.5c0,0,0.9,1.3,1.4,1.8c0.4,0.4,1.5,1.9,1.5,1.9S48.4,81.5,48,81C47.2,80,46.8,78.5,46.8,78.5z"/>
	<linearGradient id="SVGID_17_" gradientUnits="userSpaceOnUse" x1="88.8215" y1="76.7539" x2="94.1854" y2="76.7539">
		<stop  offset="0" style="stop-color:#CCCCCC"/>
		<stop  offset="0.3441" style="stop-color:#CCCCCC"/>
		<stop  offset="0.8011" style="stop-color:#F2F2F2"/>
		<stop  offset="1" style="stop-color:#F2F2F2"/>
	</linearGradient>
	<path class="st22" d="M94.2,75.4c0,0-1.1-0.3-2.8,0.6c-1.9,1-2.5,2.1-2.5,2.1s1.6-1.1,3.1-1.8C92.8,76,94.2,75.4,94.2,75.4z"/>
	<linearGradient id="SVGID_18_" gradientUnits="userSpaceOnUse" x1="86.8363" y1="75.642" x2="93.6265" y2="75.642">
		<stop  offset="0" style="stop-color:#CCCCCC"/>
		<stop  offset="0.3441" style="stop-color:#CCCCCC"/>
		<stop  offset="0.8011" style="stop-color:#F2F2F2"/>
		<stop  offset="1" style="stop-color:#F2F2F2"/>
	</linearGradient>
	<path class="st23" d="M93.6,75c0,0-1.8-0.9-3.9-0.1c-2.2,0.8-2.9,1.9-2.9,1.9s1-0.6,2.5-1.2C91.1,74.7,93.6,75,93.6,75z"/>
	<linearGradient id="SVGID_19_" gradientUnits="userSpaceOnUse" x1="93.3896" y1="79.0492" x2="95.2554" y2="79.0492">
		<stop  offset="0" style="stop-color:#CCCCCC"/>
		<stop  offset="0.3441" style="stop-color:#CCCCCC"/>
		<stop  offset="0.8011" style="stop-color:#F2F2F2"/>
		<stop  offset="1" style="stop-color:#F2F2F2"/>
	</linearGradient>
	<path class="st24" d="M95.1,76.2c0,0,0.5,1-0.1,2.9c-0.6,2.1-1.6,2.9-1.6,2.9s0.8-1.8,1.2-3.4C94.8,77.7,95.1,76.2,95.1,76.2z"/>
	<linearGradient id="SVGID_20_" gradientUnits="userSpaceOnUse" x1="95.1128" y1="80.2565" x2="96.5397" y2="80.2565">
		<stop  offset="0" style="stop-color:#CCCCCC"/>
		<stop  offset="0.3441" style="stop-color:#CCCCCC"/>
		<stop  offset="0.8011" style="stop-color:#F2F2F2"/>
		<stop  offset="1" style="stop-color:#F2F2F2"/>
	</linearGradient>
	<path class="st25" d="M95.6,76.8c0,0,1.2,1.6,0.9,3.8c-0.4,2.3-1.4,3.2-1.4,3.2s0.4-1.1,0.8-2.7C96.3,79.2,95.6,76.8,95.6,76.8z"/>
	<linearGradient id="SVGID_21_" gradientUnits="userSpaceOnUse" x1="91.7313" y1="77.4967" x2="94.5732" y2="77.4967">
		<stop  offset="0" style="stop-color:#CCCCCC"/>
		<stop  offset="0.3441" style="stop-color:#CCCCCC"/>
		<stop  offset="0.8011" style="stop-color:#F2F2F2"/>
		<stop  offset="1" style="stop-color:#F2F2F2"/>
	</linearGradient>
	<path class="st26" d="M94.6,75.6c0,0-0.9,1.3-1.4,1.9c-0.4,0.4-1.5,1.9-1.5,1.9s1.3-0.8,1.7-1.3C94.2,77.1,94.6,75.6,94.6,75.6z"/>
	
		<linearGradient id="SVGID_22_" gradientUnits="userSpaceOnUse" x1="1841.4777" y1="368.0954" x2="1846.9584" y2="368.0954" gradientTransform="matrix(-0.959 -0.2833 -0.2833 0.959 2041.9548 289.8445)">
		<stop  offset="0" style="stop-color:#CCCCCC"/>
		<stop  offset="0.3441" style="stop-color:#CCCCCC"/>
		<stop  offset="0.8011" style="stop-color:#F2F2F2"/>
		<stop  offset="1" style="stop-color:#F2F2F2"/>
	</linearGradient>
	<path class="st27" d="M172,120c0,0-1-0.6-2.9-0.3c-2.2,0.3-3.1,1.2-3.1,1.2s1.9-0.5,3.6-0.7C170.5,120.1,172,120,172,120z"/>
	
		<linearGradient id="SVGID_23_" gradientUnits="userSpaceOnUse" x1="1843.0825" y1="367.2826" x2="1848.5625" y2="367.2826" gradientTransform="matrix(-0.959 -0.2833 -0.2833 0.959 2041.9548 289.8445)">
		<stop  offset="0" style="stop-color:#CCCCCC"/>
		<stop  offset="0.3441" style="stop-color:#CCCCCC"/>
		<stop  offset="0.8011" style="stop-color:#F2F2F2"/>
		<stop  offset="1" style="stop-color:#F2F2F2"/>
	</linearGradient>
	<path class="st28" d="M170.7,118.8c0,0-1-0.6-2.9-0.3c-2.2,0.3-3.1,1.2-3.1,1.2s2-0.7,3.6-0.8C169.3,118.7,170.7,118.8,170.7,118.8
		z"/>
	
		<linearGradient id="SVGID_24_" gradientUnits="userSpaceOnUse" x1="1198.7726" y1="951.8799" x2="1204.2539" y2="951.8799" gradientTransform="matrix(-0.1905 0.9817 -0.9817 -0.1905 1334.5341 -874.4878)">
		<stop  offset="0" style="stop-color:#CCCCCC"/>
		<stop  offset="0.3441" style="stop-color:#CCCCCC"/>
		<stop  offset="0.8011" style="stop-color:#F2F2F2"/>
		<stop  offset="1" style="stop-color:#F2F2F2"/>
	</linearGradient>
	<path class="st29" d="M172.9,121.2c0,0,0.1,1.1-1,2.7c-1.3,1.8-2.4,2.2-2.4,2.2s1.3-1.4,2.2-2.8
		C172.1,122.6,172.9,121.2,172.9,121.2z"/>
	
		<linearGradient id="SVGID_25_" gradientUnits="userSpaceOnUse" x1="1108.1034" y1="967.2708" x2="1114.767" y2="967.2708" gradientTransform="matrix(-8.300000e-02 0.9965 -0.9965 -8.300000e-02 1228.2382 -901.7518)">
		<stop  offset="0" style="stop-color:#CCCCCC"/>
		<stop  offset="0.3441" style="stop-color:#CCCCCC"/>
		<stop  offset="0.8011" style="stop-color:#F2F2F2"/>
		<stop  offset="1" style="stop-color:#F2F2F2"/>
	</linearGradient>
	<path class="st30" d="M173.3,122.3c0,0,0.6,1.9-0.4,3.9c-1.1,2.1-2.3,2.6-2.3,2.6s0.7-0.9,1.6-2.3
		C173.2,124.8,173.3,122.3,173.3,122.3z"/>
	
		<linearGradient id="SVGID_26_" gradientUnits="userSpaceOnUse" x1="961.2626" y1="1009.1141" x2="963.7482" y2="1009.1141" gradientTransform="matrix(2.240000e-02 0.9997 -0.9997 2.240000e-02 1157.61 -862.7139)">
		<stop  offset="0" style="stop-color:#CCCCCC"/>
		<stop  offset="0.3441" style="stop-color:#CCCCCC"/>
		<stop  offset="0.8011" style="stop-color:#F2F2F2"/>
		<stop  offset="1" style="stop-color:#F2F2F2"/>
	</linearGradient>
	<path class="st31" d="M172.3,120.8c0,0-1.3,0.9-1.9,1.3c-0.5,0.3-2,1.3-2,1.3s1.5-0.3,2-0.7C171.5,122,172.3,120.8,172.3,120.8z"/>
	
		<linearGradient id="SVGID_27_" gradientUnits="userSpaceOnUse" x1="1611.7054" y1="686.0632" x2="1617.1862" y2="686.0632" gradientTransform="matrix(-0.7598 -0.6501 -0.6501 0.7598 1897.7205 606.9958)">
		<stop  offset="0" style="stop-color:#CCCCCC"/>
		<stop  offset="0.3441" style="stop-color:#CCCCCC"/>
		<stop  offset="0.8011" style="stop-color:#F2F2F2"/>
		<stop  offset="1" style="stop-color:#F2F2F2"/>
	</linearGradient>
	<path class="st32" d="M227.9,79.6c0,0-0.6-1-2.5-1.5c-2.1-0.6-3.3-0.2-3.3-0.2s1.9,0.3,3.5,0.8C226.5,79,227.9,79.6,227.9,79.6z"/>
	
		<linearGradient id="SVGID_28_" gradientUnits="userSpaceOnUse" x1="1573.4487" y1="718.9059" x2="1580.1152" y2="718.9059" gradientTransform="matrix(-0.7151 -0.699 -0.699 0.7151 1854.9214 664.606)">
		<stop  offset="0" style="stop-color:#CCCCCC"/>
		<stop  offset="0.3441" style="stop-color:#CCCCCC"/>
		<stop  offset="0.8011" style="stop-color:#F2F2F2"/>
		<stop  offset="1" style="stop-color:#F2F2F2"/>
	</linearGradient>
	<path class="st33" d="M227.9,78.2c0,0-0.8-1.9-2.9-2.7c-2.2-0.9-3.4-0.4-3.4-0.4s1.1,0.2,2.7,0.7C226.1,76.4,227.9,78.2,227.9,78.2
		z"/>
	
		<linearGradient id="SVGID_29_" gradientUnits="userSpaceOnUse" x1="1390.6852" y1="862.852" x2="1393.1653" y2="862.852" gradientTransform="matrix(-0.4498 0.8931 -0.8931 -0.4498 1622.2864 -774.2766)">
		<stop  offset="0" style="stop-color:#CCCCCC"/>
		<stop  offset="0.3441" style="stop-color:#CCCCCC"/>
		<stop  offset="0.8011" style="stop-color:#F2F2F2"/>
		<stop  offset="1" style="stop-color:#F2F2F2"/>
	</linearGradient>
	<path class="st34" d="M227.9,80.5c0,0-1.6,0.2-2.3,0.3c-0.6,0-2.4,0.2-2.4,0.2s1.5,0.4,2.1,0.4C226.6,81.2,227.9,80.5,227.9,80.5z"
		/>
	
		<linearGradient id="SVGID_30_" gradientUnits="userSpaceOnUse" x1="32.2078" y1="440.9059" x2="37.6918" y2="440.9059" gradientTransform="matrix(0.9232 0.3844 -0.3844 0.9232 370.7884 -330.9905)">
		<stop  offset="0" style="stop-color:#CCCCCC"/>
		<stop  offset="0.3441" style="stop-color:#CCCCCC"/>
		<stop  offset="0.8011" style="stop-color:#F2F2F2"/>
		<stop  offset="1" style="stop-color:#F2F2F2"/>
	</linearGradient>
	<path class="st35" d="M231.5,87.3c0,0,1.1,0.1,2.5,1.6c1.5,1.6,1.7,2.8,1.7,2.8s-1.1-1.6-2.3-2.8C232.6,88.4,231.5,87.3,231.5,87.3
		z"/>
	
		<linearGradient id="SVGID_31_" gradientUnits="userSpaceOnUse" x1="13.9491" y1="370.3055" x2="20.6158" y2="370.3055" gradientTransform="matrix(0.9466 0.3224 -0.3224 0.9466 338.6449 -267.42)">
		<stop  offset="0" style="stop-color:#CCCCCC"/>
		<stop  offset="0.3441" style="stop-color:#CCCCCC"/>
		<stop  offset="0.8011" style="stop-color:#F2F2F2"/>
		<stop  offset="1" style="stop-color:#F2F2F2"/>
	</linearGradient>
	<path class="st36" d="M232.8,86.7c0,0,2-0.1,3.7,1.4c1.8,1.6,1.9,2.9,1.9,2.9s-0.7-0.9-1.8-2.1C235.2,87.5,232.8,86.7,232.8,86.7z"
		/>
	
		<linearGradient id="SVGID_32_" gradientUnits="userSpaceOnUse" x1="1530.8073" y1="-729.8497" x2="1533.2878" y2="-729.8497" gradientTransform="matrix(-0.5937 0.8047 0.8047 0.5937 1728.4116 -709.5982)">
		<stop  offset="0" style="stop-color:#CCCCCC"/>
		<stop  offset="0.3441" style="stop-color:#CCCCCC"/>
		<stop  offset="0.8011" style="stop-color:#F2F2F2"/>
		<stop  offset="1" style="stop-color:#F2F2F2"/>
	</linearGradient>
	<path class="st37" d="M230.7,87.8c0,0,0.5,1.5,0.8,2.2c0.2,0.5,0.9,2.2,0.9,2.2s-1.1-1.1-1.3-1.7C230.6,89.2,230.7,87.8,230.7,87.8
		z"/>
	
		<linearGradient id="SVGID_33_" gradientUnits="userSpaceOnUse" x1="1685.9534" y1="-510.339" x2="1690.5844" y2="-510.339" gradientTransform="matrix(-0.7655 0.6435 0.6435 0.7655 1734.3043 -618.3106)">
		<stop  offset="0" style="stop-color:#CCCCCC"/>
		<stop  offset="0.3441" style="stop-color:#CCCCCC"/>
		<stop  offset="0.8011" style="stop-color:#F2F2F2"/>
		<stop  offset="1" style="stop-color:#F2F2F2"/>
	</linearGradient>
	<path class="st38" d="M114.7,75.2c0,0-0.8,0.3-1.8,2.2c-1.1,1.9-0.4,2.4-0.4,2.4s0.2-1,1-2.5C113.9,76.5,114.7,75.2,114.7,75.2z"/>
	
		<linearGradient id="SVGID_34_" gradientUnits="userSpaceOnUse" x1="340.8745" y1="714.131" x2="346.354" y2="714.131" gradientTransform="matrix(0.7135 0.7006 -0.7006 0.7135 372.0759 -672.2629)">
		<stop  offset="0" style="stop-color:#CCCCCC"/>
		<stop  offset="0.3441" style="stop-color:#CCCCCC"/>
		<stop  offset="0.8011" style="stop-color:#F2F2F2"/>
		<stop  offset="1" style="stop-color:#F2F2F2"/>
	</linearGradient>
	<path class="st39" d="M115.8,75.2c0,0,1,0.5,1.7,2.4c0.8,2,0.5,3.2,0.5,3.2s-0.4-1.9-1.1-3.4C116.5,76.6,115.8,75.2,115.8,75.2z"/>
	
		<linearGradient id="SVGID_35_" gradientUnits="userSpaceOnUse" x1="279.0252" y1="638.0404" x2="285.6896" y2="638.0404" gradientTransform="matrix(0.7853 0.6191 -0.6191 0.7853 291.9082 -597.6851)">
		<stop  offset="0" style="stop-color:#CCCCCC"/>
		<stop  offset="0.3441" style="stop-color:#CCCCCC"/>
		<stop  offset="0.8011" style="stop-color:#F2F2F2"/>
		<stop  offset="1" style="stop-color:#F2F2F2"/>
	</linearGradient>
	<path class="st40" d="M116.6,75.4c0,0,1.9,0.6,3,2.5c1.1,2.1,0.8,3.4,0.8,3.4s-0.3-1.1-1-2.6C118.6,76.9,116.6,75.4,116.6,75.4z"/>
	
		<linearGradient id="SVGID_36_" gradientUnits="userSpaceOnUse" x1="172.0859" y1="593.6948" x2="174.5719" y2="593.6948" gradientTransform="matrix(0.8461 0.533 -0.533 0.8461 284.9702 -517.2142)">
		<stop  offset="0" style="stop-color:#CCCCCC"/>
		<stop  offset="0.3441" style="stop-color:#CCCCCC"/>
		<stop  offset="0.8011" style="stop-color:#F2F2F2"/>
		<stop  offset="1" style="stop-color:#F2F2F2"/>
	</linearGradient>
	<path class="st41" d="M115.2,75.2c0,0,0.1,1.6,0,2.3c0,0.6,0,2.4,0,2.4s0.6-1.4,0.6-2C115.8,76.5,115.2,75.2,115.2,75.2z"/>
	<linearGradient id="SVGID_37_" gradientUnits="userSpaceOnUse" x1="106.1602" y1="110.8872" x2="117.1095" y2="110.8872">
		<stop  offset="0" style="stop-color:#CCCCCC"/>
		<stop  offset="0.3441" style="stop-color:#CCCCCC"/>
		<stop  offset="0.8011" style="stop-color:#F2F2F2"/>
		<stop  offset="1" style="stop-color:#F2F2F2"/>
	</linearGradient>
	<path class="st42" d="M117,140.5c-0.4,1.9-2.2,3.4-4.2,3.4c-2.4,0-5-1.9-5-4.3l3-50.1c0,0,0.1-7.3,5.2-7.1
		c-1.9-0.3-3.5-1.7-4.2-3.4c-0.2-0.5-0.3-1.4,0.3-2.3c0.8-1.1,1.9-1.5,1.9-1.5s-1.2,0.2-2.2,1.1c-0.7,0.7-1.3,1.5-1.7,2.3
		c-0.3,0.7-0.4,1.4-0.4,2.1l-3.5,59.9c0,0,0,0.3,0,0.5c0,3,2.5,5.5,5.5,5.5c3,0,5.5-2.4,5.5-5.5C117.1,140.9,117.1,140.7,117,140.5z
		"/>
	
		<linearGradient id="SVGID_38_" gradientUnits="userSpaceOnUse" x1="589.4993" y1="963.0248" x2="594.9803" y2="963.0248" gradientTransform="matrix(0.5304 -0.8478 -0.8478 -0.5304 676.5884 1109.325)">
		<stop  offset="0" style="stop-color:#CCCCCC"/>
		<stop  offset="0.3441" style="stop-color:#CCCCCC"/>
		<stop  offset="0.8011" style="stop-color:#F2F2F2"/>
		<stop  offset="1" style="stop-color:#F2F2F2"/>
	</linearGradient>
	<path class="st43" d="M173.8,99.4c0,0,0.9-0.8,1.1-2.7c0.3-2.2-0.3-3.3-0.3-3.3s0,2-0.3,3.6C174.2,97.9,173.8,99.4,173.8,99.4z"/>
	
		<linearGradient id="SVGID_39_" gradientUnits="userSpaceOnUse" x1="501.0598" y1="912.2902" x2="507.7279" y2="912.2902" gradientTransform="matrix(0.6191 -0.7853 -0.7853 -0.6191 580.1718 1056.6144)">
		<stop  offset="0" style="stop-color:#CCCCCC"/>
		<stop  offset="0.3441" style="stop-color:#CCCCCC"/>
		<stop  offset="0.8011" style="stop-color:#F2F2F2"/>
		<stop  offset="1" style="stop-color:#F2F2F2"/>
	</linearGradient>
	<path class="st44" d="M174.7,98.9c0,0,1.8-1,2.3-3.1c0.6-2.3,0-3.5,0-3.5s-0.1,1.1-0.4,2.7C176.3,97,174.7,98.9,174.7,98.9z"/>
	
		<linearGradient id="SVGID_40_" gradientUnits="userSpaceOnUse" x1="1911.2877" y1="-237.1213" x2="1916.771" y2="-237.1213" gradientTransform="matrix(-0.8945 -0.4471 0.4471 -0.8945 1988.7487 741.1447)">
		<stop  offset="0" style="stop-color:#969696"/>
		<stop  offset="0.2043" style="stop-color:#969696"/>
		<stop  offset="0.6559" style="stop-color:#CCCCCC"/>
		<stop  offset="1" style="stop-color:#CCCCCC"/>
	</linearGradient>
	<path class="st45" d="M172.6,99.7c0,0-1.1,0.2-2.3-1.3c-1.4-1.7-1.5-3.4-1.5-3.4s0.8,1.9,1.9,3.1C171.3,98.8,172.6,99.7,172.6,99.7
		z"/>
	
		<linearGradient id="SVGID_41_" gradientUnits="userSpaceOnUse" x1="1908.4563" y1="-1.5788" x2="1910.943" y2="-1.5788" gradientTransform="matrix(-0.9691 -0.2468 0.2468 -0.9691 2023.6906 567.126)">
		<stop  offset="0" style="stop-color:#969696"/>
		<stop  offset="0.2043" style="stop-color:#969696"/>
		<stop  offset="0.6559" style="stop-color:#CCCCCC"/>
		<stop  offset="1" style="stop-color:#CCCCCC"/>
	</linearGradient>
	<path class="st46" d="M173.3,99.6c0,0-0.6-1.5-0.8-2.2c-0.1-0.6-0.7-2.3-0.7-2.3s-0.1,1.5,0.1,2.1
		C172.4,98.4,173.3,99.6,173.3,99.6z"/>
	<path class="st7" d="M119.3,67.3c-10.1,0-18.7-3.9-23.7-10.8c-1-1.4-1.8-2.9-2.5-4.4h-3.8l-4.1,0C44.6,52.2,9.5,87.7,7,131.1
		c-0.1,1.4-0.1,2.8-0.1,4.6l0,5.2v27.6h174.8l2.4,0c40.6-0.1,75.7-35.6,78.2-79.1c0.1-1.4,0.1-2.8,0.1-4.6l0-5.2V52H154.3
		c-9.1,9.1-21.9,15.1-34.6,15.2H119.3z"/>
	<path class="st7" d="M115.5,67.3h-0.4c-9.2,0-17.1-3.3-22.3-9c-0.5-0.6-1-1.2-1.4-1.8c-1-1.4-1.8-2.9-2.5-4.4l-3.7,0
		C44.6,52.2,9.5,87.7,7,131.1c-0.1,1.4-0.1,2.8-0.1,4.6l0,5.2v27.6h174.8l2.4,0c40.6-0.1,75.7-35.6,78.2-79.1
		c0.1-1.4,0.1-2.8,0.1-4.6l0-5.2V52H150.1c-2.3,2.3-4.8,4.3-7.4,6.2C134.6,63.8,125,67.2,115.5,67.3z"/>
	<linearGradient id="SVGID_42_" gradientUnits="userSpaceOnUse" x1="0" y1="110.3046" x2="269.2084" y2="110.3046">
		<stop  offset="0" style="stop-color:#283376"/>
		<stop  offset="0.5" style="stop-color:#337ABD"/>
		<stop  offset="1" style="stop-color:#283376"/>
	</linearGradient>
	<path class="st47" d="M155.7,45.2c-1.6,2.4-3.5,4.7-5.7,6.8h112.3v27.6l0,5.2c0,1.8,0,3.2-0.1,4.6c-2.5,43.5-37.6,79-78.2,79.1
		l-2.4,0H6.8V141l0-5.2c0-1.8,0-3.2,0.1-4.6c2.5-43.5,37.6-79,78.2-79.1l3.7,0l0,0c-0.9-2.2-1.6-4.4-1.9-6.8h-1.8v0
		c-44.3,0.1-82.3,38.3-85,85.5c-0.1,1.7-0.1,3.3-0.1,5h0v39.7h184v0c44.3-0.1,82.3-38.3,85-85.5c0.1-1.7,0.1-3.3,0.1-5h0V45.2H155.7
		z"/>
	<g>
		<path class="st8" d="M241,168.6l-2.6-6.7h0c0,0.5,0.1,1.2,0.1,1.9v4.8h-0.8V161h1.3l2.4,6.2h0l2.4-6.2h1.3v7.6h-0.9v-4.9
			c0-0.6,0-1.2,0.1-1.8h0l-2.6,6.7H241z"/>
		<path class="st8" d="M247,168c0-0.2,0.1-0.4,0.2-0.5c0.1-0.1,0.3-0.2,0.5-0.2c0.2,0,0.4,0.1,0.5,0.2c0.1,0.1,0.2,0.3,0.2,0.5
			c0,0.2-0.1,0.4-0.2,0.5c-0.1,0.1-0.3,0.2-0.5,0.2c-0.2,0-0.3-0.1-0.4-0.2C247.1,168.4,247,168.3,247,168z"/>
		<path class="st8" d="M250.9,165.4v3.1h-0.9V161h2.1c0.9,0,1.6,0.2,2.1,0.5c0.4,0.4,0.7,0.9,0.7,1.6c0,1-0.5,1.7-1.5,2l2.1,3.4h-1
			l-1.8-3.1H250.9z M250.9,164.7h1.2c0.6,0,1.1-0.1,1.4-0.4c0.3-0.2,0.4-0.6,0.4-1.1c0-0.5-0.1-0.9-0.4-1.1
			c-0.3-0.2-0.8-0.3-1.4-0.3h-1.1V164.7z"/>
		<path class="st8" d="M256.4,168c0-0.2,0.1-0.4,0.2-0.5c0.1-0.1,0.3-0.2,0.5-0.2c0.2,0,0.4,0.1,0.5,0.2c0.1,0.1,0.2,0.3,0.2,0.5
			c0,0.2-0.1,0.4-0.2,0.5c-0.1,0.1-0.3,0.2-0.5,0.2c-0.2,0-0.3-0.1-0.4-0.2C256.4,168.4,256.4,168.3,256.4,168z"/>
	</g>
</g>
</svg>
